<?xml version="1.0" standalone="no"?><!DOCTYPE svg PUBLIC "-//W3C//DTD SVG 1.1//EN" "http://www.w3.org/Graphics/SVG/1.1/DTD/svg11.dtd"><svg t="1722948580738" class="icon" viewBox="0 0 1024 1024" version="1.1" xmlns="http://www.w3.org/2000/svg" p-id="1506" xmlns:xlink="http://www.w3.org/1999/xlink" width="200" height="200"><path d="M455.72096 41.8816c12.06272-1.57696 24.25856-2.49856 36.43392-2.06848-0.08192 150.76352 0.02048 301.52704-0.0512 452.29056-150.75328 0.09216-301.49632-0.0512-452.2496 0.07168-0.60416-13.4656 0.73728-26.95168 2.49856-40.2944 14.1312-113.72544 71.53664-221.40928 158.1568-296.448C271.54432 93.02016 361.80992 52.89984 455.72096 41.8816z" fill="#F35325" p-id="1507"></path><path d="M531.85536 39.89504c11.4688-0.57344 23.00928 0.32768 34.39616 1.75104 86.90688 9.84064 170.8544 44.51328 239.34976 98.9184 106.752 83.65056 175.09376 215.42912 178.90304 351.2832-2.52928 0.37888-5.07904 0.33792-7.60832 0.28672-148.31616-0.04096-296.63232 0.04096-444.95872-0.04096-0.07168-150.7328 0.09216-301.4656-0.08192-452.1984z" fill="#81BC06" p-id="1508"></path><path d="M39.8848 531.87584c150.7328 0.13312 301.4656-0.01024 452.1984 0.07168 0.1024 150.016-0.02048 300.04224 0.06144 450.06848-0.14336 0.57344-0.44032 1.7408-0.59392 2.32448-11.33568 0.04096-22.70208-0.41984-33.93536-1.9968-86.86592-9.84064-170.76224-44.53376-239.22688-98.90816-90.17344-70.71744-152.86272-175.42144-172.50304-288.32768-3.59424-20.85888-6.77888-42.02496-6.00064-63.232z" fill="#05A6F0" p-id="1509"></path><path d="M531.95776 531.95776c148.30592-0.08192 296.62208 0 444.928-0.04096 2.52928-0.07168 5.07904-0.07168 7.59808 0.28672-0.27648 33.1776-6.00064 66.0992-14.00832 98.22208-20.36736 78.82752-61.35808 152.27904-118.10816 210.69824-74.25024 77.2608-175.58528 127.86688-281.97888 140.71808-12.63616 1.87392-25.3952 2.43712-38.144 2.6624-0.19456-1.16736-0.31744-2.33472-0.3584-3.49184 0.11264-149.67808-0.03072-299.3664 0.07168-449.05472z" fill="#FFBA08" p-id="1510"></path></svg>